# xmcd CD database file
#
# Track frame offsets:
#	150
#	9985
#	23985
#	53155
#	66655
#	82537
#	100085
#	113335
#	121340
#	126732
#	141170
#	163162
#	166277
#	186610
#	199852
#	206022
#	216517
#	231857
#	256552
#	266860
#
# Disc length: 3773 seconds
#
# Revision: 1
# Processed by: cddbd v1.4PL0 Copyright (c) Steve Scherf et al.
# Submitted via: CDex 1.50
#
DISCID=260ebb14
DTITLE=Leadbelly - Last Sessions Disc 3
DYEAR=1994
DGENRE=Blues
TTITLE0=Midnight Special
TTITLE1=Boll Weevil Song
TTITLE2=Careless Love
TTITLE3=Easy Rider
TTITLE4=Cry For Me
TTITLE5=Ain't Going To Drink No More (De Kalb Blues)
TTITLE6=Birmingham Jail
TTITLE7=Old Riley
TTITLE8=Julie Ann Johnson
TTITLE9=It's Tight Like That
TTITLE10=4, 5 and 9
TTITLE11=Good Morning Babe, How Do You Do?
TTITLE12=Jail House Blues
TTITLE13=Well, You Know I Had To Do It
TTITLE14=Irene
TTITLE15=25 Cent Dude
TTITLE16=How Come You Do Me Like You Do?
TTITLE17=Hello Central
TTITLE18=Hesitation Blues
TTITLE19=I'll Be Down On the Last Bread Wagon
EXTD=YEAR: 1994
EXTT0=
EXTT1=
EXTT2=
EXTT3=
EXTT4=
EXTT5=
EXTT6=
EXTT7=
EXTT8=
EXTT9=
EXTT10=
EXTT11=
EXTT12=
EXTT13=
EXTT14=
EXTT15=
EXTT16=
EXTT17=
EXTT18=
EXTT19=
PLAYORDER=
